#!OML:ASF X:\für Bonn\!DataBase\2005_08_10_Bjorn_Final\c3d\bjorn.ASF
:FULLY-SPECIFIED
:DEGREES
93
root -20.9777 19.4444 -0.433761 -263.735 -88.8648 -91.7184
lowerback -12.448 5.51889 -6.37003
upperback 4.65374 9.09177 -7.27083
thorax 12.4062 4.04326 -2.40247
lowerneck -3.5631 -6.79056 6.14069
upperneck 20.9647 -10.8231 1.75878
head 6.79618 -4.80394 -1.18732
rclavicle -1.36764e-013 3.18055e-014
rhumerus 42.2613 1.68619 -45.9023
rradius 55.1767
rwrist -23.0725
rhand -0.75374 3.92138
rfingers 7.12502
rthumb 24.8682 -24.4811
lclavicle -1.36764e-013 3.18055e-014
lhumerus -21.7029 12.0648 76.1507
lradius 13.7408
lwrist -48.1078
lhand -16.3408 -2.60544
lfingers 7.12502
lthumb 9.87137 27.1431
rfemur -12.0112 -12.5142 17.6432
rtibia 25.064
rfoot -8.53772 21.3303
rtoes 4.7074
lfemur -12.4921 17.2236 -15.7138
ltibia 24.9393
lfoot -8.19309 -15.862
ltoes 1.92908
94
root -20.9774 19.4439 -0.435211 -261.984 -88.8496 -93.4919
lowerback -12.4066 5.54064 -6.32585
upperback 4.67918 9.11224 -7.27803
thorax 12.4194 4.0566 -2.43302
lowerneck -3.63616 -6.7631 6.1415
upperneck 21.3166 -10.8473 1.82889
head 6.92859 -4.79903 -1.18165
rclavicle -6.04305e-014 8.26944e-014
rhumerus 41.5867 0.970899 -47.1328
rradius 56.543
rwrist -22.8124
rhand -1.22104 4.30575
rfingers 7.12502
rthumb 24.4203 -24.1579
lclavicle -6.04305e-014 8.26944e-014
lhumerus -21.6613 12.7103 75.9338
lradius 13.499
lwrist -48.898
lhand -16.2863 -2.64951
lfingers 7.12502
lthumb 9.92394 27.0966
rfemur -11.994 -12.5032 17.6573
rtibia 25.0674
rfoot -8.50543 21.3639
rtoes 4.83026
lfemur -12.4596 17.2219 -15.6864
ltibia 24.9412
lfoot -8.20732 -15.809
ltoes 1.93915
95
root -20.9777 19.444 -0.43619 -260.522 -88.8478 -94.9542
lowerback -12.3961 5.5562 -6.28472
upperback 4.70569 9.12933 -7.2913
thorax 12.4533 4.06748 -2.46669
lowerneck -3.68636 -6.73538 6.14142
upperneck 21.6216 -10.8675 1.91033
head 7.04305 -4.79312 -1.16953
rclavicle 3.18055e-015 -6.36111e-015
rhumerus 40.8866 0.249884 -48.3402
rradius 58.0299
rwrist -22.5593
rhand -1.80063 4.72466
rfingers 7.12502
rthumb 23.8646 -23.8128
lclavicle 3.18055e-015 -6.36111e-015
lhumerus -21.6133 13.2197 75.7483
lradius 13.2873
lwrist -49.4857
lhand -16.2047 -2.65799
lfingers 7.12502
lthumb 10.0027 27.0843
rfemur -12.0012 -12.4412 17.6581
rtibia 25.0714
rfoot -8.47656 21.3393
rtoes 4.95484
lfemur -12.4513 17.2122 -15.6874
ltibia 24.9412
lfoot -8.2363 -15.7552
ltoes 1.87021
96
root -20.9776 19.4429 -0.437523 -258.707 -88.8432 -96.7824
lowerback -12.3707 5.57407 -6.23627
upperback 4.73512 9.14685 -7.30464
thorax 12.4829 4.07942 -2.50558
lowerneck -3.7529 -6.70563 6.1589
upperneck 21.9681 -10.8947 1.99317
head 7.17378 -4.78748 -1.16214
rclavicle -1.66979e-014 -4.77083e-014
rhumerus 40.1986 -0.479641 -49.5387
rradius 59.5556
rwrist -22.1888
rhand -2.44905 5.21897
rfingers 7.12502
rthumb 23.2426 -23.3984
lclavicle -1.66979e-014 -4.77083e-014
lhumerus -21.5726 13.974 75.4829
lradius 13.0633
lwrist -50.3497
lhand -16.0734 -2.74468
lfingers 7.12502
lthumb 10.1294 26.9915
rfemur -11.9918 -12.4352 17.6585
rtibia 25.0745
rfoot -8.4579 21.3717
rtoes 5.00315
lfemur -12.4279 17.2102 -15.6776
ltibia 24.945
lfoot -8.25962 -15.7183
ltoes 1.83036
97
root -20.9783 19.4427 -0.439236 -257.226 -88.8374 -98.2701
lowerback -12.3434 5.58741 -6.2005
upperback 4.75402 9.15761 -7.29919
thorax 12.4931 4.08713 -2.5186
lowerneck -3.76729 -6.68276 6.12277
upperneck 22.2806 -10.9258 2.10668
head 7.28913 -4.78733 -1.13352
rclavicle 7.95139e-015 5.725e-014
rhumerus 39.4299 -1.13402 -50.5751
rradius 61.2489
rwrist -21.9261
rhand -3.2045 5.59891
rfingers 7.12502
rthumb 22.5177 -23.1081
lclavicle 7.95139e-015 5.725e-014
lhumerus -21.5609 14.7099 75.2359
lradius 12.8542
lwrist -51.2222
lhand -15.9059 -2.84264
lfingers 7.12502
lthumb 10.2909 26.8856
rfemur -11.9848 -12.3874 17.6633
rtibia 25.0775
rfoot -8.47209 21.3555
rtoes 4.99777
lfemur -12.4091 17.2022 -15.6677
ltibia 24.9466
lfoot -8.25487 -15.6793
ltoes 1.88499
98
root -20.9793 19.4424 -0.440884 -256.891 -88.8342 -98.6134
lowerback -12.3189 5.58974 -6.15603
upperback 4.78094 9.15349 -7.29316
thorax 12.5153 4.08816 -2.53865
lowerneck -3.76084 -6.6535 6.08291
upperneck 22.5806 -10.9496 2.23509
head 7.39853 -4.78357 -1.09771
rclavicle 4.69132e-014 -2.8625e-014
rhumerus 38.611 -1.69913 -51.4448
rradius 63.0915
rwrist -21.9005
rhand -4.12793 5.89728
rfingers 7.12502
rthumb 21.6311 -22.9145
lclavicle 4.69132e-014 -2.8625e-014
lhumerus -21.5518 15.4428 74.9932
lradius 12.674
lwrist -52.0413
lhand -15.739 -2.90991
lfingers 7.12502
lthumb 10.4519 26.8103
rfemur -11.9721 -12.3377 17.6684
rtibia 25.0811
rfoot -8.496 21.317
rtoes 5.02321
lfemur -12.3924 17.1715 -15.6612
ltibia 24.9493
lfoot -8.30719 -15.6164
ltoes 1.70916
99
root -20.981 19.4421 -0.442134 -256.49 -88.8306 -99.0204
lowerback -12.3018 5.58306 -6.11398
upperback 4.80978 9.13761 -7.27086
thorax 12.5404 4.08269 -2.54137
lowerneck -3.75978 -6.61013 6.0029
upperneck 22.8812 -10.948 2.35316
head 7.51101 -4.77113 -1.05728
rclavicle 6.20208e-014 0
rhumerus 37.7412 -2.18575 -52.1886
rradius 65.0762
rwrist -22.0048
rhand -5.12685 6.15341
rfingers 7.12502
rthumb 20.6715 -22.7657
lclavicle 6.20208e-014 0
lhumerus -21.5482 16.1783 74.7772
lradius 12.4906
lwrist -52.8123
lhand -15.5889 -2.97855
lfingers 7.12502
lthumb 10.5967 26.7343
rfemur -11.9621 -12.3201 17.6718
rtibia 25.0839
rfoot -8.50527 21.3109
rtoes 5.0063
lfemur -12.3756 17.1788 -15.652
ltibia 24.9507
lfoot -8.31072 -15.6108
ltoes 1.75171
100
root -20.9824 19.4419 -0.44364 -256.134 -88.8262 -99.3772
lowerback -12.2755 5.57797 -6.06182
upperback 4.82967 9.12057 -7.25261
thorax 12.5517 4.07833 -2.55515
lowerneck -3.76856 -6.57085 5.94061
upperneck 23.2058 -10.9565 2.46034
head 7.63207 -4.76215 -1.02468
rclavicle 6.67916e-014 -6.99722e-014
rhumerus 36.8065 -2.69568 -52.95
rradius 67.1596
rwrist -22.0023
rhand -5.95889 6.38218
rfingers 7.12502
rthumb 19.8719 -22.6219
lclavicle 6.67916e-014 -6.99722e-014
lhumerus -21.5495 16.8692 74.5662
lradius 12.3192
lwrist -53.4727
lhand -15.4115 -3.03309
lfingers 7.12502
lthumb 10.7678 26.6709
rfemur -11.9602 -12.347 17.6765
rtibia 25.0869
rfoot -8.49542 21.3459
rtoes 5.02646
lfemur -12.3658 17.1526 -15.6438
ltibia 24.9533
lfoot -8.32113 -15.5761
ltoes 1.73889
101
root -20.9842 19.4409 -0.445538 -255.227 -88.8326 -100.291
lowerback -12.2451 5.57527 -6.02727
upperback 4.84933 9.10866 -7.23184
thorax 12.5571 4.0749 -2.55588
lowerneck -3.7302 -6.53116 5.89609
upperneck 23.4963 -10.9608 2.56938
head 7.73316 -4.75209 -0.990646
rclavicle -1.12115e-013 4.45278e-014
rhumerus 35.806 -3.23803 -53.752
rradius 69.3521
rwrist -21.8757
rhand -6.61441 6.57825
rfingers 7.12502
rthumb 19.2416 -22.4899
lclavicle -1.12115e-013 4.45278e-014
lhumerus -21.5732 17.4439 74.3923
lradius 12.1928
lwrist -53.9963
lhand -15.2574 -3.06835
lfingers 7.12502
lthumb 10.9165 26.6279
rfemur -11.9446 -12.3057 17.6668
rtibia 25.0887
rfoot -8.49587 21.3242
rtoes 5.14158
lfemur -12.3434 17.2327 -15.6447
ltibia 24.9553
lfoot -8.29952 -15.6345
ltoes 1.79489
102
root -20.9857 19.4405 -0.446934 -255.59 -88.8328 -99.9426
lowerback -12.2058 5.55814 -5.97592
upperback 4.87383 9.07334 -7.19718
thorax 12.562 4.06149 -2.55624
lowerneck -3.69648 -6.47941 5.82823
upperneck 23.7978 -10.952 2.6926
head 7.84144 -4.73602 -0.947877
rclavicle -5.80451e-014 6.99722e-014
rhumerus 34.7775 -3.77535 -54.5455
rradius 71.6145
rwrist -21.6675
rhand -7.14699 6.72508
rfingers 7.12502
rthumb 18.7294 -22.3932
lclavicle -5.80451e-014 6.99722e-014
lhumerus -21.602 17.9328 74.253
lradius 12.0815
lwrist -54.4528
lhand -15.1292 -3.10245
lfingers 7.12502
lthumb 11.0402 26.5872
rfemur -11.9262 -12.2814 17.6693
rtibia 25.0933
rfoot -8.50845 21.3099
rtoes 5.17319
lfemur -12.3168 17.24 -15.6362
ltibia 24.9539
lfoot -8.33516 -15.6366
ltoes 1.63631
